<?xml version="1.0" encoding="UTF-8" standalone="no"?>
<!-- Created with Inkscape (http://www.inkscape.org/) -->

<svg
   xmlns:dc="http://purl.org/dc/elements/1.1/"
   xmlns:cc="http://creativecommons.org/ns#"
   xmlns:rdf="http://www.w3.org/1999/02/22-rdf-syntax-ns#"
   xmlns:svg="http://www.w3.org/2000/svg"
   xmlns="http://www.w3.org/2000/svg"
   xmlns:sodipodi="http://sodipodi.sourceforge.net/DTD/sodipodi-0.dtd"
   xmlns:inkscape="http://www.inkscape.org/namespaces/inkscape"
   width="218"
   height="218"
   id="svg2998"
   version="1.1"
   inkscape:version="0.48.3.1 r9886"
   sodipodi:docname="interval_braining.svg">
  <defs
     id="defs3000" />
  <sodipodi:namedview
     id="base"
     pagecolor="#ffffff"
     bordercolor="#666666"
     borderopacity="1.0"
     inkscape:pageopacity="0"
     inkscape:pageshadow="2"
     inkscape:zoom="1"
     inkscape:cx="-53.394571"
     inkscape:cy="193.77787"
     inkscape:current-layer="layer2"
     showgrid="false"
     inkscape:document-units="px"
     inkscape:grid-bbox="true"
     inkscape:window-width="1920"
     inkscape:window-height="1024"
     inkscape:window-x="0"
     inkscape:window-y="27"
     inkscape:window-maximized="1"
     fit-margin-top="0"
     fit-margin-left="0"
     fit-margin-right="0"
     fit-margin-bottom="0"
     inkscape:showpageshadow="false"
     borderlayer="false">
    <inkscape:grid
       type="xygrid"
       id="grid3819"
       empspacing="5"
       visible="true"
       enabled="true"
       snapvisiblegridlinesonly="true"
       originx="74.739217px"
       originy="67.76551px" />
  </sodipodi:namedview>
  <metadata
     id="metadata3003">
    <rdf:RDF>
      <cc:Work
         rdf:about="">
        <dc:format>image/svg+xml</dc:format>
        <dc:type
           rdf:resource="http://purl.org/dc/dcmitype/StillImage" />
        <dc:title />
      </cc:Work>
    </rdf:RDF>
  </metadata>
  <g
     id="layer1"
     inkscape:label="Layer 1"
     inkscape:groupmode="layer"
     transform="translate(74.739217,86.234484)">
    <g
       id="g3821"
       transform="translate(24,0)">
      <g
         inkscape:groupmode="layer"
         id="layer2"
         inkscape:label="Layer" />
      <g
         id="g3841">
        <path
           sodipodi:nodetypes="ccccccccccccccccc"
           inkscape:connector-curvature="0"
           id="path2396"
           d="m -43.683028,100.53906 c -0.483934,-10.605239 8.22275,-20.788539 6.367218,-31.433789 0.16466,-9.16868 -3.000222,-17.637 -8.070709,-25.18117 -5.406914,-10.42611 -16.314404,-16.74682 -20.302629,-28.06859 -9.759664,-21.9579451 -10.638069,-48.890027 0.792908,-70.374866 17.739756,-25.061794 51.642578,-34.422644 80.84049,-27.934801 19.044843,4.108429 40.045273,10.941138 50.980323,28.359727 10.96558,16.477803 10.13438,36.907068 11.9356,55.7500959 3.14551,8.9771081 9.53864,16.2806441 15.8477,23.1219541 6.351727,11.12253 -17.85705,8.49026 -8.82113,20.52416 -0.51732,5.37901 -9.41991,2.79448 -2.80117,8.72467 -1.11802,4.46656 -6.85451,10.30953 -1.92055,16.25919 3.07126,9.32094 -4.68655,15.98213 -13.57738,15.4866 -10.85121,0.51652 -22.87291,1.18099 -30.89163,9.60003 -3.99391,7.423069 0.37797,6.424069 -0.9829,12.846619 -4.96355,6.62342 1.29289,16.43257 -2.25468,22.04662 -22.515003,-8.73031 -54.626459,-20.99614 -77.141461,-29.72645 z"
           style="fill:#5578c2;fill-opacity:1;fill-rule:evenodd;stroke:#5578c2;stroke-width:3;stroke-linecap:butt;stroke-linejoin:miter;stroke-miterlimit:4;stroke-opacity:0;stroke-dasharray:none" />
        <g
           transform="matrix(2.0296344,0,0,2.0296344,-61.935697,-78.290188)"
           id="g13">
          <title
             id="title15">Layer 1</title>
          <path
             style="fill:#dadada;fill-opacity:1;fill-rule:evenodd;stroke:#dadada;stroke-width:0.37499899;stroke-linecap:round;stroke-linejoin:round;stroke-opacity:1"
             inkscape:connector-curvature="0"
             id="path705"
             d="m 8.651824,46.399948 5.040215,5.280216 8.160304,-5.52026 6.480278,2.880169 2.16008,9.459805 6.96026,-0.06393 1.920094,-9.706238 6.480259,-2.569805 8.160313,5.280258 3.840164,-5.280258 -9.26096,-8.739731 C 24.856116,59.191501 5.870835,24.364137 26.259367,10.326127 L 22.332375,7.758364 14.892068,3.028445 9.752434,7.249189 l 4.659614,7.949461 -2.64009,6.480266 -9.092322,1.510378 -0.028056,6.889957 9.360399,2.400103 2.580096,6.300293 -5.94025,7.6203 z" />
          <path
             inkscape:connector-curvature="0"
             id="path741"
             d="M 32.9375,4.4375 C 18.161564,4.5564732 7.2648244,21.732113 13.5625,35.125 18.618733,48.984299 38.416407,53.318545 48.875,43 60.236614,33.534087 57.700884,13.402553 44.375,7 40.862541,5.1767691 36.904012,4.2294237 32.9375,4.4375 z"
             style="fill:#f6f6f6;fill-opacity:1;fill-rule:evenodd;stroke:#dadada;stroke-width:4.23698378;stroke-opacity:1" />
          <path
             style="fill:none;stroke:#272930;stroke-width:3.75;stroke-linecap:round;stroke-linejoin:round;stroke-opacity:1"
             inkscape:connector-curvature="0"
             id="path743"
             d="m 33.858292,26.379841 0,-14.446001" />
          <path
             style="fill:none;stroke:#272930;stroke-width:3.75;stroke-linecap:round;stroke-linejoin:round;stroke-opacity:1"
             inkscape:connector-curvature="0"
             id="path744"
             d="m 34.507832,26.66098 9.971649,5.75713" />
          <path
             style="fill:#13151d;fill-opacity:1;fill-rule:evenodd;stroke:#13151d;stroke-width:3.200037;stroke-linecap:round;stroke-linejoin:round;stroke-opacity:1"
             inkscape:connector-curvature="0"
             id="path742"
             d="m 35.816681,26.590691 a 1.827557,1.827557 0 1 0 -3.655113,0 1.827557,1.827557 0 1 0 3.65509,-3.2e-5 l -1.827534,3.2e-5 1.827557,0 z" />
        </g>
      </g>
    </g>
  </g>
</svg>
